<?xml version="1.0" standalone="no"?>
<!DOCTYPE svg PUBLIC "-//W3C//DTD SVG 20010904//EN"
 "http://www.w3.org/TR/2001/REC-SVG-20010904/DTD/svg10.dtd">
<svg version="1.0" xmlns="http://www.w3.org/2000/svg"
 width="1101.000000pt" height="1101.000000pt" viewBox="0 0 1101.000000 1101.000000"
 preserveAspectRatio="xMidYMid meet">
<metadata>
Created by potrace 1.11, written by Peter Selinger 2001-2013
</metadata>
<g transform="translate(0.000000,1101.000000) scale(0.100000,-0.100000)"
fill="#000000" stroke="none">
<path d="M5145 10490 c-545 -38 -1057 -153 -1548 -349 -798 -319 -1538 -878
-2077 -1571 -493 -634 -839 -1414 -969 -2187 -57 -341 -66 -452 -66 -868 0
-413 7 -496 66 -854 72 -433 218 -891 419 -1306 582 -1203 1641 -2136 2900
-2555 221 -74 366 -114 555 -154 430 -90 924 -125 1343 -96 498 35 844 104
1303 259 723 244 1384 659 1921 1206 374 382 642 747 891 1215 92 174 253 553
307 725 184 587 261 1106 247 1680 -7 261 -14 357 -48 590 -136 950 -545 1841
-1175 2561 -642 733 -1447 1247 -2382 1520 -288 84 -587 140 -937 174 -153 15
-593 20 -750 10z"/>
</g>
</svg>
